<svg width="108" height="101" viewBox="0 0 108 101" fill="none" xmlns="http://www.w3.org/2000/svg">
<path d="M0 23.5669C0 10.5513 10.7112 0 23.9241 0H84.076C97.2888 0 108 10.5513 108 23.5669C108 36.5825 97.2888 47.1338 84.0759 47.1338H73.2197C73.1668 47.0677 73.1113 47.0028 73.0533 46.9394L56.9555 29.3152C55.5049 27.727 53.0219 27.598 51.4097 29.027C49.7974 30.4559 49.6664 32.9018 51.1171 34.49L67.2149 52.1141C67.4819 52.4064 67.7839 52.6493 68.1089 52.8422L69.0382 53.8662H84.076C97.2888 53.8662 108 64.4175 108 77.4331C108 90.4487 97.2888 101 84.0759 101H23.924C10.7112 101 0 90.4487 0 77.4331C0 67.0036 6.87748 58.1565 16.4087 55.0525L31.6949 72.0142C32.9678 73.4267 35.1622 73.5552 36.596 72.3013C38.0299 71.0473 38.1603 68.8858 36.8874 67.4733L18.4337 46.9969C17.7679 46.2581 16.85 45.8706 15.9208 45.8484L15.8334 45.7521C6.60198 42.4848 0 33.7853 0 23.5669Z" fill="#008867"/>
</svg>
