<svg width="556" height="116" viewBox="0 0 556 116" fill="none" xmlns="http://www.w3.org/2000/svg">
<path fill-rule="evenodd" clip-rule="evenodd" d="M0.0119069 43.7217C0.0119069 32.9521 8.74235 24.2217 19.5119 24.2217H71.6305C82.4 24.2217 91.1305 32.9521 91.1305 43.7217V45.0907C91.1305 55.8602 82.4 64.5907 71.6305 64.5907H61.7864C61.7418 64.5341 61.6951 64.4787 61.6462 64.4244L48.0646 49.3297C46.8407 47.9695 44.7459 47.859 43.3857 49.0828C42.0255 50.3067 41.9149 52.4016 43.1388 53.7618L56.7204 68.8565C56.9457 69.1069 57.2005 69.3149 57.4748 69.4801L58.2584 70.3566H71.6303C82.3998 70.3566 91.1303 79.0871 91.1303 89.8566V91.2256C91.1303 101.995 82.3998 110.726 71.6303 110.726H19.5117C8.74214 110.726 0.0117188 101.995 0.0117188 91.2256V89.8566C0.0117188 81.1011 5.78218 73.6932 13.7275 71.2288L26.7523 85.9003C27.8262 87.11 29.6776 87.2201 30.8873 86.1461C32.097 85.0721 32.2071 83.2208 31.1331 82.0111L15.5639 64.4735C14.9145 63.742 13.9809 63.4126 13.0768 63.5039C5.46915 60.8453 0.0119069 53.6053 0.0119069 45.0907V43.7217Z" fill="#008867"/>
<path fill-rule="evenodd" clip-rule="evenodd" d="M115.898 24.2217C105.405 24.2217 96.8984 32.7283 96.8984 43.2217V91.7266C96.8984 100.908 103.411 108.569 112.069 110.341C113.306 110.594 114.587 110.727 115.898 110.727C115.899 110.727 115.899 110.727 115.899 110.727H164.404C174.897 110.727 183.404 102.22 183.404 91.7267V85.8975C183.404 75.4041 174.897 66.8975 164.404 66.8975H140.728V43.2217C140.728 32.7283 132.221 24.2217 121.728 24.2217H115.898Z" fill="#008867"/>
<ellipse cx="230.5" cy="69.5" rx="45.5" ry="44.5" fill="#008867"/>
<path fill-rule="evenodd" clip-rule="evenodd" d="M297.634 24.2217C287.417 24.2217 279.134 32.5044 279.134 42.7217V95.6868C279.134 105.904 287.417 114.187 297.634 114.187H302.156C312.373 114.187 320.656 105.904 320.656 95.6868V42.7217C320.656 32.5044 312.373 24.2217 302.156 24.2217H297.634ZM339.157 24.2217C328.94 24.2217 320.657 32.5044 320.657 42.7217V95.6868C320.657 105.904 328.94 114.187 339.157 114.187H343.679C353.897 114.187 362.179 105.904 362.179 95.6868V42.7217C362.179 32.5044 353.897 24.2217 343.679 24.2217H339.157Z" fill="#008867"/>
<path fill-rule="evenodd" clip-rule="evenodd" d="M367.948 88.0849L367.948 51.4923C367.947 51.422 367.947 51.3515 367.947 51.281L367.947 42.7217C367.947 32.5044 376.23 24.2217 386.447 24.2217L439.412 24.2217C449.629 24.2217 457.912 32.5044 457.912 42.7217L457.912 51.281C457.912 61.4771 449.663 69.7466 439.475 69.7809C449.664 69.815 457.912 78.0846 457.912 88.2808L457.912 96.84C457.912 107.057 449.629 115.34 439.412 115.34L386.447 115.34C376.23 115.34 367.947 107.057 367.947 96.84L367.947 88.2807C367.947 88.2154 367.947 88.1501 367.948 88.0849Z" fill="#008867"/>
<path fill-rule="evenodd" clip-rule="evenodd" d="M553.643 42.7217C553.643 32.5044 545.361 24.2217 535.143 24.2217L482.178 24.2217C471.961 24.2217 463.678 32.5044 463.678 42.7217L463.678 43.7442C463.678 43.7879 463.678 43.8316 463.678 43.8754V96.8406C463.678 107.058 471.96 115.341 482.178 115.341H486.7C496.917 115.341 505.2 107.058 505.2 96.8406V87.9225L505.278 87.9641C505.227 88.6243 505.201 89.2917 505.201 89.9652C505.201 103.979 516.561 115.34 530.575 115.34C544.589 115.34 555.95 103.979 555.95 89.9652C555.95 78.3943 548.205 68.6322 537.617 65.5801C546.665 64.3712 553.643 56.6226 553.643 47.2441V42.7217Z" fill="#008867"/>
<path d="M225.719 84.0312L225.156 83.625C228.073 81.8333 229.708 79.1667 230.062 75.625C224.521 73.9792 221.75 70.6562 221.75 65.6562C221.75 62.5938 222.771 60.0104 224.812 57.9062C226.854 55.7812 229.354 54.7188 232.312 54.7188C235.312 54.7188 237.781 55.7812 239.719 57.9062C241.656 60.0104 242.625 62.7188 242.625 66.0312C242.625 70.1979 241.01 74.0312 237.781 77.5312C234.573 81.0312 230.552 83.1979 225.719 84.0312Z" fill="white"/>
<path d="M500.719 73.0312L500.156 72.625C503.073 70.8333 504.708 68.1667 505.062 64.625C499.521 62.9792 496.75 59.6562 496.75 54.6562C496.75 51.5938 497.771 49.0104 499.812 46.9062C501.854 44.7812 504.354 43.7188 507.312 43.7188C510.312 43.7188 512.781 44.7812 514.719 46.9062C516.656 49.0104 517.625 51.7188 517.625 55.0312C517.625 59.1979 516.01 63.0312 512.781 66.5312C509.573 70.0312 505.552 72.1979 500.719 73.0312Z" fill="white"/>
<path d="M336 56C336 47.7157 329.284 41 321 41C312.716 41 306 47.7157 306 56" stroke="white" stroke-width="5" stroke-linecap="round"/>
<path d="M422 84C430.837 84 438 77.732 438 70C438 62.268 430.837 56 422 56" stroke="white" stroke-width="5" stroke-linecap="round"/>
</svg>
