<svg width="370" height="83" viewBox="0 0 370 83" fill="none" xmlns="http://www.w3.org/2000/svg">
<path fill-rule="evenodd" clip-rule="evenodd" d="M0 36.2791C0 28.9366 5.95225 22.9844 13.2947 22.9844H46.7214C54.0639 22.9844 60.0161 28.9366 60.0161 36.2791C60.0161 43.6216 54.0639 49.5738 46.7214 49.5738H40.6883C40.6589 49.5365 40.6281 49.5 40.5959 49.4642L31.6503 39.5219C30.8441 38.626 29.4644 38.5532 28.5684 39.3593C27.6725 40.1654 27.5997 41.5452 28.4058 42.4411L37.3515 52.3834C37.4999 52.5483 37.6678 52.6854 37.8485 52.7942L38.3652 53.3723H46.7214C54.0639 53.3723 60.0161 59.3246 60.0161 66.667C60.0161 74.0095 54.0639 79.9617 46.7214 79.9617H13.2947C5.95225 79.9617 0 74.0095 0 66.667C0 60.7835 3.82186 55.7926 9.11839 54.0415L17.613 63.61C18.3204 64.4068 19.5397 64.4793 20.3366 63.772C21.1334 63.0646 21.2059 61.8452 20.4985 61.0484L10.2436 49.4971C9.87375 49.0804 9.36386 48.8618 8.84759 48.8492L8.79848 48.7943C3.66866 46.9511 0 42.0435 0 36.2791Z" fill="white"/>
<path fill-rule="evenodd" clip-rule="evenodd" d="M78.2497 22.9844C70.2779 22.9844 63.8155 29.4468 63.8155 37.4187V65.4959C63.8154 65.5063 63.8154 65.5168 63.8154 65.5272C63.8154 66.1813 63.8589 66.8251 63.9432 67.4561C63.9552 67.5462 63.9681 67.6361 63.9818 67.7257C65.0404 74.6542 71.0253 79.9617 78.2497 79.9617C78.2767 79.9617 78.3036 79.9617 78.3305 79.9615H106.359C114.33 79.9615 120.793 73.4991 120.793 65.5272C120.793 57.5554 114.33 51.093 106.359 51.093H92.684V37.4186C92.684 29.4468 86.2215 22.9844 78.2497 22.9844Z" fill="white"/>
<ellipse cx="152.5" cy="53" rx="29.5" ry="29" fill="white"/>
<path fill-rule="evenodd" clip-rule="evenodd" d="M199.521 22.9844C191.969 22.9844 185.847 29.1067 185.847 36.6589V68.5663C185.847 76.1185 191.969 82.2408 199.521 82.2408C207.073 82.2408 213.196 76.1185 213.196 68.5663V36.6589C213.196 29.1067 207.073 22.9844 199.521 22.9844ZM226.87 22.9844C219.318 22.9844 213.196 29.1067 213.196 36.6589V68.5663C213.196 76.1185 219.318 82.2408 226.87 82.2408C234.423 82.2408 240.545 76.1185 240.545 68.5663V36.6589C240.545 29.1067 234.423 22.9844 226.87 22.9844Z" fill="white"/>
<path fill-rule="evenodd" clip-rule="evenodd" d="M289.597 22.9844C297.883 22.9844 304.601 29.7019 304.601 37.9884C304.601 46.2525 297.919 52.9562 289.664 52.9923C297.919 53.0285 304.6 59.7321 304.6 67.9962C304.6 76.2827 297.883 83.0002 289.596 83.0002L260.348 83.0002C260.121 83.0002 259.895 82.9952 259.67 82.9852C259.455 82.9953 259.237 83.0004 259.019 83.0004C251.467 83.0004 245.345 76.8781 245.345 69.3259L245.345 68.129C245.344 68.0848 245.344 68.0405 245.344 67.9962C245.344 67.9519 245.344 67.9076 245.345 67.8633L245.345 38.0944C245.344 38.0591 245.344 38.0238 245.344 37.9884C245.344 37.9531 245.344 37.9178 245.345 37.8825L245.345 37.4924C245.345 33.9848 246.665 30.7856 248.836 28.365C251.589 25.0761 255.724 22.9844 260.348 22.9844L289.597 22.9844Z" fill="white"/>
<path fill-rule="evenodd" clip-rule="evenodd" d="M367.655 36.6589C367.655 29.1067 361.533 22.9844 353.981 22.9844H322.073C314.521 22.9844 308.399 29.1067 308.399 36.6589C308.399 36.784 308.4 36.9088 308.404 37.0331C308.4 37.1611 308.398 37.2895 308.398 37.4184V69.3257C308.398 76.878 314.521 83.0003 322.073 83.0003C329.625 83.0003 335.748 76.878 335.748 69.3257V64.9414L335.799 64.9687C335.765 65.4035 335.748 65.8431 335.748 66.2867C335.748 75.5172 343.23 83 352.461 83C361.691 83 369.174 75.5172 369.174 66.2867C369.174 58.4792 363.821 51.9221 356.585 50.0859C362.891 48.87 367.655 43.3208 367.655 36.6589Z" fill="white"/>
<path d="M148.039 64.7734L147.617 64.4688C149.805 63.125 151.031 61.125 151.297 58.4688C147.141 57.2344 145.062 54.7422 145.062 50.9922C145.062 48.6953 145.828 46.7578 147.359 45.1797C148.891 43.5859 150.766 42.7891 152.984 42.7891C155.234 42.7891 157.086 43.5859 158.539 45.1797C159.992 46.7578 160.719 48.7891 160.719 51.2734C160.719 54.3984 159.508 57.2734 157.086 59.8984C154.68 62.5234 151.664 64.1484 148.039 64.7734Z" fill="#0CA475"/>
<path d="M331.039 54.7734L330.617 54.4688C332.805 53.125 334.031 51.125 334.297 48.4688C330.141 47.2344 328.062 44.7422 328.062 40.9922C328.062 38.6953 328.828 36.7578 330.359 35.1797C331.891 33.5859 333.766 32.7891 335.984 32.7891C338.234 32.7891 340.086 33.5859 341.539 35.1797C342.992 36.7578 343.719 38.7891 343.719 41.2734C343.719 44.3984 342.508 47.2734 340.086 49.8984C337.68 52.5234 334.664 54.1484 331.039 54.7734Z" fill="#0CA475"/>
<path d="M223 44C223 39.0294 218.523 35 213 35C207.477 35 203 39.0294 203 44" stroke="#0CA475" stroke-width="4" stroke-linecap="round"/>
<path d="M279 62C285.627 62 291 57.9706 291 53C291 48.0294 285.627 44 279 44" stroke="#0CA475" stroke-width="4" stroke-linecap="round"/>
</svg>
